# xmcd
#
# Track frame offsets: 
#        150
#        15525
#        30771
#        43904
#        61754
#        72650
#        107828
#        124971
#        145693
#        164271
#
# Disc length: 2472 seconds
#
# Revision: 0
# Processed by: cddbd v1.5.2PL0 Copyright (c) Steve Scherf et al.
# Submitted via: ExactAudioCopyFreeDBPlugin 1.0
#
DISCID=8409a60a
DTITLE=Cuff The Duke - Morning Comes
DYEAR=2011
DGENRE=Folk/Rock
TTITLE0=Time Is Right
TTITLE1=You Don't Know What It's Like
TTITLE2=Count On Me
TTITLE3=Standing On The Edge
TTITLE4=So Many Times Before
TTITLE5=Bound To Your Own Vices
TTITLE6=Drag Me Down
TTITLE7=Brightest Part Of The Sun
TTITLE8=You Won't Look Back
TTITLE9=Letting Go
EXTD=
EXTT0=
EXTT1=
EXTT2=
EXTT3=
EXTT4=
EXTT5=
EXTT6=
EXTT7=
EXTT8=
EXTT9=
PLAYORDER=
